PathFileType	4	(x/y/z)	S04_P20_T18.trc
DataRate	CameraRate	NumFrames	NumMarkers	Units	OrigDataRate	OrigDataStartFrame	OrigNumFrames
240	240	10	51	mm	240	46	363
Frame#	Time	Sternum			R.Acromium			L.Acromium			Top.Head			R.ASIS			L.ASIS			R.PSIS			L.PSIS			R.Great.Tro			L.Great.Tro			R.Iliac.Crest			L.Iliac.Crest			V.Sacral			R.Thigh.Upper.Post			R.Thigh.Lower.Ant			R.Thigh.Lower.Post			R.Thigh.Upper.Ant			R.Knee.Lat			R.Knee.Med			R.Shank.Upper.Post			R.Shank.Lower.Ant			R.Shank.Lower.Post			R.Shank.Upper.Ant			R.Ankle.Lat			R.Ankle.Med			R.Heel.Upper			R.Heel.Med			R.Heel.Lat			R.Toe.Lat			R.Toe.Med			R.Toe.Tip			L.Thigh.Upper.Post			L.Thigh.Lower.Ant			L.Thigh.Lower.Post			L.Thigh.Upper.Ant			L.Knee.Lat			L.Knee.Med			L.Shank.Upper.Post			L.Shank.Lower.Ant			L.Shank.Lower.Post			L.Shank.Upper.Ant			L.Ankle.Lat			L.Ankle.Med			L.Heel.Upper			L.Heel.Med			L.Heel.Lat			L.Toe.Lat			L.Toe.Med			L.Toe.Tip			Cervical.Spine			Back			
		X1	Y1	Z1	X2	Y2	Z2	X3	Y3	Z3	X4	Y4	Z4	X5	Y5	Z5	X6	Y6	Z6	X7	Y7	Z7	X8	Y8	Z8	X9	Y9	Z9	X10	Y10	Z10	X11	Y11	Z11	X12	Y12	Z12	X13	Y13	Z13	X14	Y14	Z14	X15	Y15	Z15	X16	Y16	Z16	X17	Y17	Z17	X18	Y18	Z18	X19	Y19	Z19	X20	Y20	Z20	X21	Y21	Z21	X22	Y22	Z22	X23	Y23	Z23	X24	Y24	Z24	X25	Y25	Z25	X26	Y26	Z26	X27	Y27	Z27	X28	Y28	Z28	X29	Y29	Z29	X30	Y30	Z30	X31	Y31	Z31	X32	Y32	Z32	X33	Y33	Z33	X34	Y34	Z34	X35	Y35	Z35	X36	Y36	Z36	X37	Y37	Z37	X38	Y38	Z38	X39	Y39	Z39	X40	Y40	Z40	X41	Y41	Z41	X42	Y42	Z42	X43	Y43	Z43	X44	Y44	Z44	X45	Y45	Z45	X46	Y46	Z46	X47	Y47	Z47	X48	Y48	Z48	X49	Y49	Z49	X50	Y50	Z50	X51	Y51	Z51	

46	0.1875	-1066.3	1273.1	238.13	-1176.3	1503.8	418.57	-1205.5	1488	69.235	-1157.9	1830.4	232.13	-1115	987.89	385.18	-1105.4	1017.4	138.37	-1330.1	1026.3	278.6	-1317.5	1034.2	197.21	-1206.1	903.66	440.15	-1210.7	926.92	64.36	-1204.5	1083.5	425.28	-1206.7	1092	87.241	-1344.7	988.23	235.33	-1185.1	644.86	437.2	-1099.7	568.78	417.47	-1175.1	554.87	424.9	-1103.3	679.01	434.11	-1157.8	487.34	419.72	-1161.1	484.76	285.1	-1358.4	374.54	403.5	NaN	NaN	NaN	-1412.1	327.41	388.41	-1321.5	322.1	391.62	-1487.4	242.14	366.87	-1449.7	228.51	284.02	-1548.8	259.79	303.43	-1555.2	230.78	272.72	-1575.4	237.58	334.27	-1468.8	115.73	406.69	-1418.9	85.678	297.56	-1367.8	60.453	354.46	-1179.5	686.27	80.671	-1081.6	609.04	95.115	-1154.3	602.26	98.859	-1111.7	692.18	74.608	-1096.1	517.78	111.14	-1104.2	508.87	234.15	-1169.2	333.64	106.94	-1099.5	249.62	120.67	-1162.9	255.73	118.51	-1107.6	325.11	109.83	-1119.1	98.559	138.46	-1119.1	110.59	232.36	-1196.3	68.511	184.06	-1189.6	45.239	218.92	-1191	39.421	157.61	-1005.8	42.682	126.45	-978.88	53.803	242.62	-919.98	66.1	195.22	-1238.3	1552.5	250.21	-1331.8	1297.4	238.8
47	0.19167	-1061.2	1273.6	238.42	-1171.7	1504.4	418.43	-1199.6	1488.4	68.973	-1153.3	1830.9	231.79	-1110.1	988.48	384.95	-1100.2	1017.8	138.16	-1325.2	1026.7	278.4	-1312.7	1034.7	197.01	-1201	904.23	440.02	-1206	927.3	64.243	-1199.8	1084.1	425.07	-1201.6	1092.5	87.088	-1339.9	988.66	235.09	-1176.9	645.59	437.02	-1090.6	570.5	417.49	-1165.8	555.72	424.7	-1095.5	680.67	434.11	-1147.9	488.67	419.69	-1150.8	485.86	285.01	-1348.4	376.09	403.31	NaN	NaN	NaN	-1402.2	328.89	388.41	-1311.4	323.56	391.83	-1477.4	243.71	366.96	-1439.6	229.46	284.27	-1538.6	260.64	303.12	-1545	231.35	272.67	-1565.4	238.73	334.17	-1458.6	117.77	408.09	-1408.5	86.642	299.35	-1357.6	61.846	356.79	-1175.9	686.67	80.719	-1078.5	608.89	95.106	-1151.3	602.5	98.903	-1108.1	692.2	74.598	-1093.6	517.68	111.2	-1101.8	508.85	234.28	-1167.7	333.96	107.15	-1098.6	249.5	120.75	-1161.8	256.04	118.68	-1106.2	325.03	109.92	-1118.9	98.648	138.63	-1119	110.6	232.52	-1196.3	68.603	184.14	-1189.6	45.261	218.97	-1191	39.528	157.66	-1005.8	42.682	126.4	-978.82	53.519	242.64	-919.94	65.771	195.23	-1233.1	1553	249.82	-1326.7	1298	238.22
48	0.19583	-1056.2	1274.1	238.72	-1167	1505.1	418.3	-1193.8	1488.9	68.73	-1148.7	1831.5	231.47	-1105.2	989.13	384.74	-1095.1	1018.2	137.94	-1320.4	1027.1	278.2	-1307.9	1035.2	196.81	-1195.8	904.87	439.91	-1201.4	927.67	64.147	-1195.2	1084.6	424.87	-1196.5	1093	86.938	-1335	989.11	234.87	-1168.8	646.41	436.84	-1081.6	572.32	417.48	-1156.7	556.67	424.5	-1087.8	682.42	434.11	-1138	490.11	419.66	-1140.6	487.09	284.92	-1338.4	377.46	403.14	NaN	NaN	NaN	-1392.1	330.11	388.41	-1301.1	324.91	392.05	-1467.1	244.9	367.06	-1429.2	230.14	284.51	-1528.3	261.03	302.87	-1534.6	231.44	272.66	-1555.1	239.35	334.11	-1447.9	119.46	409.45	-1397.6	87.419	301.05	-1346.8	63.155	358.99	-1172.5	687.08	80.798	-1075.5	608.72	95.109	-1148.3	602.73	98.963	-1104.6	692.22	74.6	-1091.1	517.56	111.26	-1099.4	508.83	234.41	-1166.3	334.26	107.4	-1097.7	249.38	120.83	-1160.7	256.34	118.87	-1105	324.96	110.02	-1118.8	98.74	138.81	-1118.8	110.61	232.68	-1196.3	68.701	184.23	-1189.6	45.285	219.02	-1190.9	39.639	157.71	-1005.8	42.687	126.35	-978.76	53.25	242.65	-919.89	65.462	195.24	-1228	1553.6	249.44	-1321.6	1298.7	237.63
49	0.2	-1051.1	1274.6	239.03	-1162.4	1505.7	418.18	-1187.9	1489.3	68.505	-1144	1832.1	231.17	-1100.3	989.84	384.55	-1090	1018.6	137.74	-1315.6	1027.6	278.01	-1303.1	1035.7	196.6	-1190.7	905.59	439.83	-1196.7	928.04	64.07	-1190.5	1085.2	424.67	-1191.3	1093.5	86.793	-1330.2	989.59	234.66	-1160.8	647.33	436.67	-1072.8	574.22	417.45	-1147.6	557.72	424.3	-1080.1	684.23	434.11	-1128.3	491.65	419.62	-1130.5	488.43	284.83	-1328.3	378.65	402.98	NaN	NaN	NaN	-1381.9	331.06	388.41	-1290.6	326.15	392.28	-1456.6	245.71	367.2	-1418.6	230.55	284.75	-1517.7	260.97	302.68	-1523.9	231.08	272.7	-1544.5	239.46	334.12	-1436.6	120.8	410.76	-1386.2	88.007	302.65	-1335.5	64.367	361.04	-1169.1	687.49	80.904	-1072.6	608.54	95.119	-1145.4	602.98	99.032	-1101.2	692.23	74.614	-1088.8	517.45	111.33	-1097.2	508.8	234.54	-1165.1	334.55	107.68	-1096.8	249.27	120.9	-1159.7	256.63	119.07	-1103.8	324.89	110.13	-1118.7	98.836	138.99	-1118.7	110.63	232.84	-1196.3	68.804	184.32	-1189.6	45.312	219.08	-1190.9	39.753	157.76	-1005.8	42.694	126.31	-978.7	52.991	242.67	-919.85	65.169	195.25	-1222.8	1554.2	249.07	-1316.5	1299.4	237.05
50	0.20417	-1046	1275.2	239.34	-1157.8	1506.4	418.06	-1182.1	1489.8	68.297	-1139.3	1832.6	230.89	-1095.4	990.59	384.37	-1084.9	1019	137.53	-1310.7	1028.1	277.83	-1298.3	1036.2	196.4	-1185.6	906.37	439.77	-1192	928.41	64.014	-1185.8	1085.9	424.48	-1186.2	1094.1	86.651	-1325.4	990.09	234.48	-1152.8	648.33	436.51	-1064	576.21	417.4	-1138.6	558.86	424.11	-1072.5	686.11	434.09	-1118.6	493.28	419.58	-1120.5	489.87	284.74	-1318.2	379.64	402.85	-1325.3	276.66	370.91	-1371.4	331.72	388.41	-1280	327.28	392.51	-1445.8	246.12	367.38	-1407.8	230.69	284.99	-1507	260.47	302.57	-1513	230.27	272.79	-1533.7	239.05	334.19	-1424.9	121.76	412.01	-1374.3	88.401	304.14	-1323.6	65.467	362.93	-1165.8	687.9	81.035	-1069.8	608.35	95.136	-1142.5	603.22	99.107	-1097.9	692.24	74.637	-1086.5	517.33	111.38	-1095	508.77	234.66	-1163.9	334.82	107.97	-1096	249.17	120.97	-1158.7	256.92	119.28	-1102.7	324.83	110.23	-1118.5	98.935	139.17	-1118.5	110.65	233.01	-1196.3	68.914	184.42	-1189.5	45.346	219.13	-1190.9	39.873	157.82	-1005.7	42.702	126.27	-978.64	52.743	242.68	-919.81	64.887	195.26	-1217.7	1554.8	248.73	-1311.4	1300.1	236.47
51	0.20833	-1040.9	1275.8	239.66	-1153.2	1507.1	417.95	-1176.3	1490.4	68.105	-1134.6	1833.3	230.63	-1090.5	991.38	384.21	-1079.9	1019.4	137.33	-1305.9	1028.6	277.65	-1293.6	1036.8	196.2	-1180.6	907.22	439.73	-1187.4	928.77	63.978	-1181.1	1086.6	424.3	-1181	1094.6	86.514	-1320.5	990.63	234.32	-1144.8	649.4	436.37	-1055.2	578.25	417.32	-1129.7	560.08	423.94	-1064.9	688.04	434.07	-1109.1	494.97	419.52	-1110.7	491.42	284.65	-1308.1	380.43	402.74	-1315.4	276.6	371.09	-1360.8	332.09	388.43	-1269.3	328.27	392.74	-1434.7	246.14	367.59	-1396.8	230.55	285.24	-1496.1	259.53	302.53	-1502	229.03	272.94	-1522.7	238.14	334.33	-1412.7	122.36	413.2	-1362	88.602	305.52	-1311.3	66.445	364.65	-1162.6	688.31	81.185	-1067	608.16	95.157	-1139.8	603.47	99.183	-1094.6	692.25	74.667	-1084.4	517.2	111.43	-1092.9	508.73	234.77	-1162.7	335.09	108.26	-1095.2	249.08	121.03	-1157.9	257.2	119.5	-1101.6	324.78	110.33	-1118.4	99.036	139.36	-1118.4	110.68	233.17	-1196.3	69.031	184.52	-1189.5	45.386	219.19	-1190.9	39.998	157.88	-1005.7	42.708	126.24	-978.57	52.501	242.69	-919.76	64.613	195.26	-1212.6	1555.5	248.39	-1306.3	1300.8	235.9
52	0.2125	-1035.9	1276.3	239.98	-1148.6	1507.8	417.85	-1170.6	1491	67.928	-1129.8	1833.9	230.4	-1085.6	992.22	384.06	-1074.9	1019.8	137.14	-1301	1029.2	277.5	-1288.8	1037.4	196.01	-1175.5	908.12	439.71	-1182.8	929.13	63.96	-1176.4	1087.4	424.12	-1175.9	1095.2	86.383	-1315.7	991.19	234.18	-1136.9	650.53	436.25	-1046.6	580.36	417.22	-1120.9	561.37	423.79	-1057.4	690.02	434.04	-1099.6	496.71	419.45	-1101	493.05	284.55	-1297.9	381.02	402.67	-1305.1	276.48	371.27	-1350	332.17	388.45	-1258.6	329.12	392.98	-1423.4	245.77	367.85	-1385.5	230.14	285.5	-1485	258.16	302.57	-1490.7	227.36	273.15	-1511.3	236.74	334.54	-1400.1	122.59	414.33	-1349.2	88.61	306.79	-1298.4	67.294	366.2	-1159.4	688.73	81.353	-1064.3	607.97	95.18	-1137.1	603.73	99.258	-1091.3	692.25	74.703	-1082.4	517.07	111.48	-1090.8	508.68	234.87	-1161.7	335.34	108.55	-1094.5	249	121.08	-1157	257.47	119.71	-1100.6	324.73	110.42	-1118.3	99.138	139.55	-1118.3	110.71	233.32	-1196.3	69.153	184.62	-1189.5	45.434	219.25	-1190.8	40.129	157.94	-1005.7	42.712	126.2	-978.51	52.266	242.7	-919.72	64.343	195.26	-1207.4	1556.1	248.07	-1301.2	1301.5	235.32
53	0.21667	-1030.8	1276.9	240.3	-1144	1508.6	417.75	-1164.8	1491.6	67.765	-1125	1834.5	230.19	-1080.7	993.09	383.92	-1069.9	1020.2	136.94	-1296.1	1029.8	277.36	-1284.1	1038	195.83	-1170.4	909.06	439.71	-1178.2	929.5	63.961	-1171.7	1088.1	423.96	-1170.7	1095.8	86.258	-1310.8	991.78	234.07	-1129.1	651.73	436.16	-1038.1	582.51	417.1	-1112.2	562.73	423.66	-1050	692.03	434	-1090.2	498.49	419.38	-1091.4	494.76	284.46	-1287.6	381.4	402.62	-1294.4	276.28	371.46	-1339.1	331.98	388.49	-1247.7	329.83	393.22	-1411.8	245.03	368.14	-1374	229.47	285.77	-1473.7	256.38	302.68	-1479.2	225.3	273.41	-1499.8	234.87	334.82	-1387	122.47	415.39	-1336	88.43	307.95	-1285.1	68.01	367.58	-1156.3	689.15	81.532	-1061.6	607.77	95.204	-1134.4	603.99	99.33	-1088.1	692.26	74.742	-1080.4	516.95	111.51	-1088.7	508.62	234.96	-1160.6	335.59	108.83	-1093.8	248.92	121.13	-1156.2	257.74	119.92	-1099.7	324.69	110.5	-1118.1	99.243	139.73	-1118.1	110.76	233.48	-1196.3	69.282	184.73	-1189.5	45.49	219.32	-1190.8	40.266	158.01	-1005.7	42.712	126.17	-978.45	52.035	242.71	-919.67	64.077	195.26	-1202.3	1556.8	247.75	-1296.1	1302.2	234.75
54	0.22083	-1025.7	1277.6	240.61	-1139.4	1509.3	417.66	-1159.1	1492.2	67.615	-1120.2	1835.1	230	-1075.8	993.99	383.78	-1064.9	1020.6	136.75	-1291.2	1030.5	277.24	-1279.3	1038.6	195.66	-1165.3	910.04	439.73	-1173.6	929.87	63.979	-1167	1088.9	423.79	-1165.5	1096.5	86.14	-1305.9	992.39	233.99	-1121.3	652.97	436.11	-1029.6	584.69	416.95	-1103.6	564.15	423.57	-1042.6	694.06	433.96	-1080.9	500.31	419.29	-1082	496.53	284.36	-1277.4	381.56	402.62	-1283.3	276	371.65	-1328	331.5	388.55	-1236.7	330.39	393.47	-1400	243.92	368.46	-1362.3	228.55	286.05	-1462.2	254.19	302.87	-1467.5	222.85	273.73	-1487.9	232.54	335.16	-1373.5	122.01	416.39	-1322.4	88.065	309.01	-1271.3	68.591	368.81	-1153.3	689.57	81.718	-1059.1	607.57	95.226	-1131.9	604.25	99.396	-1084.9	692.26	74.785	-1078.5	516.82	111.54	-1086.7	508.56	235.02	-1159.7	335.84	109.1	-1093.1	248.86	121.16	-1155.4	258	120.13	-1098.7	324.66	110.58	-1118	99.349	139.91	-1118	110.81	233.63	-1196.3	69.416	184.84	-1189.5	45.557	219.38	-1190.8	40.409	158.07	-1005.6	42.709	126.15	-978.38	51.809	242.72	-919.61	63.813	195.26	-1197.2	1557.4	247.45	-1291	1302.9	234.17
55	0.225	-1020.7	1278.2	240.93	-1134.8	1510.1	417.56	-1153.3	1492.9	67.476	-1115.3	1835.7	229.83	-1071	994.92	383.65	-1059.9	1021	136.55	-1286.3	1031.1	277.14	-1274.5	1039.3	195.51	-1160.2	911.06	439.77	-1169	930.25	64.014	-1162.3	1089.8	423.64	-1160.3	1097.1	86.03	-1301.1	993.03	233.94	-1113.6	654.26	436.09	-1021.3	586.9	416.78	-1095.1	565.61	423.51	-1035.2	696.11	433.9	-1071.7	502.13	419.21	-1072.7	498.35	284.26	-1267	381.52	402.65	-1271.9	275.62	371.84	-1316.8	330.76	388.63	-1225.7	330.8	393.72	-1387.9	242.47	368.82	-1350.4	227.38	286.34	-1450.5	251.62	303.12	-1455.6	220.04	274.1	-1475.8	229.78	335.57	-1359.6	121.23	417.33	-1308.4	87.523	309.97	-1257.2	69.039	369.88	-1150.3	690	81.905	-1056.5	607.37	95.247	-1129.3	604.53	99.455	-1081.8	692.26	74.832	-1076.6	516.69	111.55	-1084.6	508.49	235.07	-1158.7	336.07	109.36	-1092.4	248.8	121.19	-1154.7	258.25	120.33	-1097.9	324.64	110.65	-1117.9	99.457	140.09	-1117.9	110.87	233.77	-1196.3	69.555	184.95	-1189.5	45.633	219.44	-1190.7	40.559	158.13	-1005.6	42.702	126.12	-978.31	51.586	242.72	-919.56	63.548	195.25	-1192	1558.1	247.15	-1285.9	1303.6	233.6
